Coordinates
version=1
nRows=32
nColumns=22
inDegrees=yes

Units are S.I. units (second, meters, Newtons, ...)
If the header above contains a line with 'inDegrees', this indicates whether rotational values are in degrees (yes) or radians (no).

endheader
time	pelvis_tilt	pelvis_list	pelvis_rotation	pelvis_tx	pelvis_ty	pelvis_tz	hip_flexion_r	hip_adduction_r	hip_rotation_r	knee_angle_r	ankle_angle_r	subtalar_angle_r	hip_flexion_l	hip_adduction_l	hip_rotation_l	knee_angle_l	ankle_angle_l	subtalar_angle_l	lumbar_extension	lumbar_bending	lumbar_rotation
      1.14000000	     -1.34707451	      3.64960836	    180.96904637	     -1.30591396	      1.02577884	     -0.13036970	      8.05401776	      7.68761353	     -5.96888083	     -9.77878936	      0.89456901	     -5.91046102	     15.84529623	     -6.61833889	     -2.80340615	    -54.93201509	     17.69038634	      3.25290447	    -15.80436765	      3.79410854	      6.11481362
      1.15000000	     -1.43068359	      3.72047060	    180.89182684	     -1.30340322	      1.02559863	     -0.12986263	      8.11816743	      7.73093013	     -5.91008000	     -9.76616620	      0.71356108	     -5.87789565	     15.56710512	     -6.75495356	     -2.73229425	    -56.12488064	     17.51973012	      3.29433182	    -15.72474148	      3.85814741	      6.11002315
      1.16000000	     -1.51571554	      3.76309997	    180.81044792	     -1.30083192	      1.02540861	     -0.12931064	      8.19260677	      7.74027747	     -5.85690379	     -9.77231329	      0.59353991	     -5.85920233	     15.23169676	     -6.85256108	     -2.65475558	    -57.17026278	     17.22346431	      3.34000149	    -15.64512683	      3.88857844	      6.09569738
      1.17000000	     -1.59106559	      3.82532952	    180.73536005	     -1.29818626	      1.02517801	     -0.12869981	      8.28741762	      7.76548800	     -5.81105629	     -9.78490689	      0.43677885	     -5.83369171	     14.86288947	     -6.95983775	     -2.54482854	    -58.07586659	     16.88075475	      3.44523907	    -15.55361825	      3.94710879	      6.07383872
      1.18000000	     -1.66652687	      3.90431694	    180.67349305	     -1.29545299	      1.02492806	     -0.12799267	      8.39302739	      7.80131895	     -5.77233361	     -9.80460829	      0.23686805	     -5.78210904	     14.45117857	     -7.06123241	     -2.38368905	    -58.83300883	     16.51007740	      3.77922451	    -15.46495447	      4.03753343	      6.03751653
      1.19000000	     -1.73693352	      3.94414781	    180.59152214	     -1.29263450	      1.02465746	     -0.12724193	      8.52915077	      7.79146211	     -5.72508771	     -9.86737399	      0.11038975	     -5.74364692	     13.98576316	     -7.11301199	     -2.24178465	    -59.41558430	     16.01761114	      4.12984190	    -15.37522334	      4.08216153	      5.99159044
      1.20000000	     -1.79543122	      3.97702324	    180.51376824	     -1.28971773	      1.02436163	     -0.12639755	      8.68334814	      7.76819195	     -5.67476713	     -9.92607066	     -0.04869647	     -5.70729659	     13.48775255	     -7.12685576	     -2.05444425	    -59.82834917	     15.44589984	      4.48016887	    -15.27540202	      4.12555149	      5.95324530
      1.21000000	     -1.85850128	      4.00928582	    180.42550666	     -1.28672042	      1.02404711	     -0.12549534	      8.85423660	      7.73978868	     -5.62946408	    -10.01852457	     -0.17107263	     -5.66821194	     12.93912103	     -7.13558651	     -1.87883052	    -60.07273732	     14.80129249	      4.94574228	    -15.18405889	      4.17589000	      5.89984588
      1.22000000	     -1.91064337	      4.01634805	    180.34529056	     -1.28361661	      1.02371745	     -0.12448599	      9.03748607	      7.67831514	     -5.57681293	    -10.09801138	     -0.32584961	     -5.62694778	     12.36007374	     -7.07808175	     -1.64949332	    -60.13660983	     14.07336058	      5.43312493	    -15.08482686	      4.20372096	      5.84472702
      1.23000000	     -1.97322005	      4.03566217	    180.25385504	     -1.28042024	      1.02337403	     -0.12343155	      9.22466834	      7.62708918	     -5.53687611	    -10.19663946	     -0.45334821	     -5.58111435	     11.73326675	     -7.02829668	     -1.42949434	    -60.03573862	     13.27211789	      6.06025086	    -15.00247471	      4.25015849	      5.77986638
      1.24000000	     -2.02806571	      4.04310836	    180.16731671	     -1.27709935	      1.02301006	     -0.12229517	      9.42104475	      7.55922074	     -5.49313003	    -10.28049941	     -0.60119326	     -5.53092567	     11.08278289	     -6.92928485	     -1.15579634	    -59.76667037	     12.38505637	      6.74176122	    -14.91818245	      4.28570860	      5.72491043
      1.25000000	     -2.08032294	      4.02692395	    180.08103840	     -1.27363891	      1.02263285	     -0.12106654	      9.63334782	      7.45952425	     -5.45297998	    -10.37424785	     -0.74776041	     -5.47759657	     10.40422776	     -6.77633543	     -0.85451553	    -59.32670330	     11.41702786	      7.45739620	    -14.84100596	      4.30233446	      5.64028475
      1.26000000	     -2.12539537	      4.00796352	    179.99493829	     -1.27005404	      1.02222270	     -0.11976458	      9.85505353	      7.35341745	     -5.41463234	    -10.45517178	     -0.91051283	     -5.41723282	      9.70984852	     -6.58867304	     -0.50671718	    -58.73514168	     10.38449279	      8.21980705	    -14.75819229	      4.32010141	      5.55692940
      1.27000000	     -2.16825545	      3.97420876	    179.91137806	     -1.26631078	      1.02178982	     -0.11838653	     10.09483834	      7.22565724	     -5.38611267	    -10.54831362	     -1.06827902	     -5.35117565	      8.99934542	     -6.35829515	     -0.12088580	    -57.99258193	      9.29235741	      8.98238473	    -14.68438771	      4.32540658	      5.45055283
      1.28000000	     -2.20435842	      3.93678926	    179.83327656	     -1.26242718	      1.02132343	     -0.11692191	     10.34165430	      7.08869773	     -5.36494478	    -10.62230672	     -1.23961519	     -5.27492252	      8.28021803	     -6.09211151	      0.32311481	    -57.10872849	      8.17867889	      9.72243514	    -14.60864217	      4.33177697	      5.34822717
      1.29000000	     -2.21015298	      3.86689325	    179.76441962	     -1.25837102	      1.02078872	     -0.11535262	     10.63076227	      6.90970224	     -5.34074391	    -10.69288761	     -1.43643484	     -5.20087134	      7.58161616	     -5.75252100	      0.84215568	    -56.08657384	      7.08708128	     10.24141764	    -14.50579608	      4.30808538	      5.21181610
      1.30000000	     -2.23711108	      3.81919611	    179.69449108	     -1.25417444	      1.02024527	     -0.11375400	     10.90339432	      6.75256076	     -5.33155849	    -10.75908208	     -1.62183598	     -5.10597058	      6.84962695	     -5.42495928	      1.40204803	    -54.94242499	      6.04607496	     10.74549961	    -14.43470622	      4.30560952	      5.08799595
      1.31000000	     -2.29439982	      3.80676192	    179.61859354	     -1.24985230	      1.01971393	     -0.11212838	     11.13358226	      6.63188167	     -5.34264114	    -10.78909056	     -1.83033862	     -4.96660322	      6.07170372	     -5.13048788	      1.98997689	    -53.68131788	      5.10200940	     11.17922154	    -14.40635081	      4.34039733	      4.99598910
      1.32000000	     -2.28660410	      3.76112898	    179.55346758	     -1.24530396	      1.01903194	     -0.11039783	     11.45648828	      6.46706098	     -5.34837675	    -10.83487100	     -2.04555193	     -4.85711946	      5.36482476	     -4.76961928	      2.66832023	    -52.31820602	      4.33121803	     11.27800186	    -14.31446117	      4.34456513	      4.86245474
      1.33000000	     -2.33486067	      3.74927646	    179.49081098	     -1.24061772	      1.01840134	     -0.10864923	     11.70578018	      6.33800064	     -5.35990808	    -10.83836924	     -2.30707233	     -4.68348989	      4.58110664	     -4.44692731	      3.38434909	    -50.84848092	      3.78345874	     11.24121760	    -14.29791016	      4.37843606	      4.75363380
      1.34000000	     -2.33745361	      3.74100091	    179.43325636	     -1.23573566	      1.01764294	     -0.10686597	     12.00701511	      6.20975322	     -5.39206332	    -10.82271704	     -2.57506129	     -4.53435076	      3.85295483	     -4.12870381	      4.15012580	    -49.31695552	      3.49453141	     11.10166373	    -14.23813983	      4.41245929	      4.64121806
      1.35000000	     -2.35065483	      3.76049095	    179.38001818	     -1.23065091	      1.01684821	     -0.10504951	     12.29517495	      6.10987642	     -5.41477368	    -10.78079976	     -2.90070041	     -4.36808671	      3.11996227	     -3.84922700	      4.94771710	    -47.74054528	      3.50501027	     10.91374024	    -14.20867389	      4.47507669	      4.52917908
      1.36000000	     -2.31980470	      3.78608256	    179.34079523	     -1.22533787	      1.01592555	     -0.10317807	     12.62873352	      6.01233719	     -5.45376519	    -10.70683321	     -3.25628658	     -4.22813597	      2.46241582	     -3.58687082	      5.77959235	    -46.16587447	      3.80425926	     10.79568972	    -14.14408020	      4.54405958	      4.40219374
      1.37000000	     -2.30961714	      3.85318016	    179.29952344	     -1.21985261	      1.01497444	     -0.10131711	     12.92051780	      5.96124776	     -5.50337232	    -10.57547396	     -3.65607547	     -4.05372576	      1.80180490	     -3.40003516	      6.57703864	    -44.60525369	      4.44807097	     10.69332077	    -14.11702522	      4.64771994	      4.30118819
      1.38000000	     -2.27339013	      3.94405560	    179.26080132	     -1.21413524	      1.01391100	     -0.09944416	     13.23680076	      5.93620356	     -5.55312829	    -10.41031422	     -4.08806390	     -3.87666576	      1.21938424	     -3.26714102	      7.32579061	    -43.11677466	      5.37107011	     10.64352018	    -14.07946673	      4.77067618	      4.20402778
      1.39000000	     -2.22126296	      4.04916909	    179.22127962	     -1.20819935	      1.01275336	     -0.09755952	     13.56207634	      5.92630845	     -5.61597901	    -10.20209050	     -4.55115726	     -3.68264822	      0.71332176	     -3.18097985	      7.97950289	    -41.72640823	      6.53259823	     10.60771928	    -14.04280761	      4.89954841	      4.11936491
      1.40000000	     -2.15926242	      4.16344529	    179.18363916	     -1.20204472	      1.01151478	     -0.09564760	     13.89362802	      5.92497395	     -5.68902712	     -9.95921643	     -5.04129299	     -3.45833535	      0.28885401	     -3.13321247	      8.50609591	    -40.45452858	      7.86825318	     10.54222514	    -14.01450130	      5.03210836	      4.03542229
      1.41000000	     -2.10915486	      4.27468118	    179.14586096	     -1.19567285	      1.01023922	     -0.09370387	     14.21452576	      5.91797167	     -5.76891261	     -9.69385116	     -5.55834116	     -3.12970179	     -0.07436397	     -3.10758716	      8.86822978	    -39.30152226	      9.29618382	     10.36384206	    -14.02309458	      5.15336323	      3.95459129
      1.42000000	     -2.01285515	      4.39858700	    179.11683620	     -1.18909915	      1.00881447	     -0.09173781	     14.57891485	      5.92431111	     -5.83841048	     -9.39296909	     -6.06667779	     -2.85400978	     -0.29555337	     -3.12176842	      9.05190228	    -38.29276871	     10.79554638	     10.11555198	    -13.99283582	      5.28327833	      3.86680925
      1.43000000	     -1.93937496	      4.48118070	    179.07203699	     -1.18230424	      1.00740358	     -0.08973502	     14.94899541	      5.88235986	     -5.89866007	     -9.12538124	     -6.56831492	     -2.31629299	     -0.47848058	     -3.10127999	      9.04188089	    -37.35990036	     12.22584108	      9.50975144	    -14.01617009	      5.35757362	      3.77886104
      1.44000000	     -1.85346562	      4.55179357	    179.01608626	     -1.17532806	      1.00595067	     -0.08773051	     15.35290091	      5.82805059	     -5.95840943	     -8.87814134	     -7.05110565	     -1.77517853	     -0.57848718	     -3.08169628	      8.84424140	    -36.51177182	     13.60412261	      8.82175101	    -14.04366688	      5.40988923	      3.70709232
      1.45000000	     -1.13973627	      4.15993263	    178.66995737	     -1.16707405	      1.00304029	     -0.08584191	     16.55811452	      5.33708551	     -6.46611695	     -8.65885108	     -7.45198086	     -1.52289255	      0.21609622	     -2.52324709	      8.33801860	    -35.94552114	     14.88920093	      7.93392639	    -13.48139416	      4.91840576	      3.76155585
